<svg width="1440" height="1024" viewBox="0 0 1440 1024" fill="none" xmlns="http://www.w3.org/2000/svg">
<rect width="1440" height="1024" fill="url(#paint0_radial)"/>
<rect width="1440" height="1024" fill="url(#paint1_linear)"/>
<g clip-path="url(#clip0)">
<path d="M646 495.753C646.001 517.595 640.746 538.633 631.286 554.661C621.826 570.689 608.858 580.526 594.974 582.205C594.506 582.26 594.031 582.316 593.557 582.349V500.055C593.557 499.233 593.44 498.421 593.215 497.678C592.989 496.936 592.66 496.282 592.253 495.765C592.206 495.689 592.153 495.622 592.097 495.564C592.045 495.499 591.991 495.439 591.934 495.387C591.436 494.884 590.865 494.585 590.275 494.517C589.684 494.449 589.092 494.614 588.553 494.998L587.965 492.974C588.608 492.515 589.306 492.276 590.013 492.274L549.646 437.726C549.958 437.171 550.284 436.626 550.61 436.081C558.22 423.498 568.061 414.784 578.861 411.064C589.662 407.344 600.925 408.791 611.196 415.216C621.467 421.641 630.273 432.749 636.478 447.106C642.682 461.463 645.999 478.409 646 495.753Z" fill="#F2F2F2"/>
<path d="M121.016 554.876C120.816 553.268 120.842 551.609 121.094 550.018C121.346 548.428 121.818 546.943 122.475 545.668C123.132 544.394 123.96 543.361 124.9 542.643C125.839 541.925 126.867 541.538 127.912 541.511L159.777 482.013L167.732 497.967L135.257 553.34C135.171 556.096 134.442 558.707 133.21 560.677C131.978 562.648 130.327 563.84 128.572 564.03C126.817 564.219 125.078 563.392 123.685 561.705C122.293 560.018 121.343 557.588 121.016 554.876H121.016Z" fill="#FFB8B8"/>
<path d="M272.329 481.645C272.106 482.151 271.909 482.684 271.739 483.238L236.946 491.039L231.663 480.518L220.498 490.95L230.993 516.616L273.426 496.996C274.546 498.586 275.948 499.603 277.445 499.913C278.943 500.223 280.465 499.81 281.809 498.73C283.154 497.65 284.257 495.953 284.971 493.866C285.686 491.779 285.979 489.4 285.81 487.046C285.642 484.691 285.021 482.473 284.029 480.686C283.037 478.899 281.722 477.627 280.259 477.041C278.795 476.455 277.253 476.581 275.836 477.404C274.42 478.226 273.196 479.705 272.329 481.645Z" fill="#FFB8B8"/>
<path d="M212.897 680.438L219.054 690.054L245.631 657.381L236.544 643.188L212.897 680.438Z" fill="#FFB8B8"/>
<path d="M225.236 717.566L205.886 687.345L213.33 675.618L225.204 694.163C226.186 695.696 226.965 697.518 227.498 699.524C228.031 701.53 228.307 703.681 228.31 705.854C228.313 708.028 228.043 710.18 227.515 712.19C226.988 714.2 226.213 716.026 225.236 717.566L225.236 717.566Z" fill="#2F2E41"/>
<path d="M180.17 772.671H188.858L192.992 720.104H180.168L180.17 772.671Z" fill="#FFB8B8"/>
<path d="M205.615 785.324L178.308 785.326L178.308 768.777L195.064 768.776C196.449 768.776 197.821 769.204 199.101 770.036C200.381 770.867 201.545 772.086 202.524 773.623C203.504 775.159 204.281 776.983 204.811 778.991C205.342 780.999 205.615 783.151 205.615 785.324Z" fill="#2F2E41"/>
<path d="M178.281 732.071L168.385 617.588C166.836 600.287 167.316 582.687 169.803 565.657C171.834 551.97 174.577 542.49 177.958 537.48C178.491 536.695 179.174 536.206 179.902 536.088L212.577 530.749C213.206 530.648 213.841 530.83 214.407 531.274C214.973 531.717 215.447 532.404 215.773 533.254L216.847 536.062C216.978 536.403 217.083 536.766 217.161 537.144L224.069 570.738C224.172 571.245 224.339 571.715 224.559 572.121C224.779 572.527 225.048 572.86 225.351 573.101C236.228 581.812 271.56 611.216 269.538 623.903C267.638 635.823 249.851 655.15 244.445 660.789C243.894 661.367 243.246 661.671 242.584 661.663C241.921 661.656 241.276 661.336 240.731 660.745L231.757 651.114C231.319 650.644 230.959 650.016 230.707 649.283C230.455 648.55 230.319 647.733 230.31 646.9C230.301 646.067 230.418 645.243 230.654 644.497C230.889 643.75 231.235 643.103 231.662 642.609L237.851 635.456C238.23 635.018 238.525 634.427 238.705 633.745C238.886 633.063 238.944 632.318 238.875 631.588C238.805 630.858 238.609 630.172 238.31 629.603C238.01 629.034 237.617 628.604 237.173 628.36L203.936 610.067C203.563 609.862 203.165 609.793 202.772 609.867C202.379 609.941 202.003 610.155 201.671 610.493C201.339 610.831 201.061 611.283 200.858 611.816C200.656 612.349 200.534 612.947 200.501 613.565L194.373 731.051C194.306 732.311 193.949 733.489 193.371 734.369C192.792 735.248 192.029 735.769 191.225 735.835L181.743 736.579C181.685 736.584 181.628 736.586 181.57 736.586C180.766 736.591 179.988 736.135 179.382 735.303C178.776 734.472 178.385 733.323 178.281 732.071Z" fill="#2F2E41"/>
<path d="M193.267 435.964C202.88 435.964 210.673 423.74 210.673 408.661C210.673 393.582 202.88 381.359 193.267 381.359C183.654 381.359 175.861 393.582 175.861 408.661C175.861 423.74 183.654 435.964 193.267 435.964Z" fill="#FFB8B8"/>
<path d="M176.986 532.804L164.174 459.475L164.393 459.243C164.668 458.952 192.285 430.348 224.618 453.399L225.204 453.927L217.612 530.037C217.447 531.774 216.9 533.366 216.066 534.538C215.232 535.71 214.164 536.389 213.045 536.458L181.804 538.343C181.741 538.346 181.678 538.349 181.616 538.349C180.563 538.353 179.538 537.811 178.701 536.809C177.864 535.806 177.261 534.398 176.986 532.804Z" fill="#CCCCCC"/>
<path d="M163.686 507.213L153.015 487.965C152.501 487.04 152.212 485.861 152.198 484.634C152.184 483.407 152.447 482.212 152.94 481.26L164.095 459.644L172.658 463.308L177.198 488.232L168.92 506.782C168.632 507.433 168.252 507.971 167.81 508.356C167.367 508.74 166.875 508.961 166.37 509C166.31 509.004 166.251 509.007 166.192 509.007C165.716 509.008 165.246 508.849 164.814 508.539C164.382 508.23 163.997 507.777 163.686 507.213Z" fill="#CCCCCC"/>
<path d="M222.695 503.203C222.191 503.164 221.698 502.944 221.256 502.559C220.814 502.175 220.434 501.637 220.145 500.986L211.867 482.436L215.849 456.199L223.733 452.826L225.204 453.927L236.126 475.463C236.619 476.416 236.881 477.611 236.867 478.838C236.854 480.064 236.564 481.244 236.05 482.169L225.379 501.417C225.069 501.981 224.684 502.433 224.251 502.743C223.819 503.052 223.349 503.212 222.874 503.21C222.815 503.21 222.755 503.208 222.695 503.203Z" fill="#CCCCCC"/>
<path d="M593.557 494.608C593.563 494.885 593.502 495.156 593.386 495.364C593.264 495.588 593.09 495.727 592.903 495.75C592.716 495.773 592.53 495.678 592.387 495.487L590.013 492.274L549.646 437.727L436.425 284.711C435.779 283.844 434.957 283.368 434.106 283.37C433.256 283.372 432.434 283.852 431.79 284.722L279.322 492.496L277.947 494.364C277.894 494.437 277.834 494.497 277.77 494.542C277.656 494.621 277.531 494.651 277.408 494.631C277.231 494.601 277.067 494.471 276.947 494.264C276.886 494.155 276.839 494.027 276.809 493.889C276.778 493.751 276.766 493.605 276.772 493.459C276.778 493.314 276.802 493.172 276.843 493.041C276.884 492.91 276.941 492.793 277.011 492.696L277.202 492.43L430.862 283.043C431.765 281.827 432.915 281.156 434.105 281.152C435.295 281.148 436.447 281.811 437.353 283.021L550.61 436.081L593.308 493.797C593.383 493.898 593.444 494.023 593.486 494.162C593.529 494.302 593.553 494.454 593.557 494.608Z" fill="#3F3D56"/>
<path d="M507.472 527.435L505.608 519.387L499.187 491.596L485.353 431.757L469.889 364.871L442.002 244.226C441.455 241.873 440.335 239.957 438.888 238.896C437.442 237.836 435.786 237.718 434.284 238.568L273.05 330.266C271.549 331.124 270.327 332.88 269.651 335.149C268.975 337.418 268.9 340.016 269.442 342.371L308.981 513.407L309.654 516.33L351.155 545.833L362.82 554.125L364.712 555.471L414.101 590.587L416.014 589.497L448.409 571.078L497.274 543.287L503.857 539.541C505.358 538.684 506.581 536.928 507.259 534.659C507.936 532.39 508.013 529.793 507.472 527.435Z" fill="#E6E6E6"/>
<path d="M439.862 384.969C439.058 381.506 437.411 378.685 435.283 377.124C433.154 375.564 430.718 375.39 428.509 376.642L364.712 412.937L333.905 430.456C332.811 431.077 331.805 432.03 330.945 433.261C330.085 434.491 329.389 435.976 328.895 437.629C328.401 439.282 328.12 441.072 328.068 442.896C328.015 444.72 328.192 446.542 328.589 448.258C328.986 449.975 329.594 451.551 330.38 452.899C331.165 454.246 332.112 455.337 333.167 456.11C334.221 456.883 335.362 457.322 336.525 457.403C337.688 457.483 338.85 457.204 339.943 456.58L364.712 442.495L434.554 402.777C436.761 401.515 438.56 398.932 439.555 395.594C440.55 392.255 440.66 388.434 439.862 384.969Z" fill="white"/>
<path d="M451.095 433.569C450.291 430.106 448.644 427.286 446.515 425.725C444.387 424.164 441.951 423.991 439.742 425.243L428.934 431.39L364.712 467.918L345.138 479.046C342.931 480.304 341.132 482.886 340.138 486.223C339.143 489.56 339.034 493.38 339.834 496.844C340.634 500.308 342.279 503.131 344.405 504.694C346.532 506.257 348.967 506.432 351.176 505.18L364.712 497.476L445.787 451.366C445.971 451.266 446.148 451.144 446.325 451.022C448.384 449.605 450.022 447.014 450.908 443.773C451.793 440.532 451.86 436.884 451.095 433.569Z" fill="white"/>
<path d="M462.448 482.681C461.646 479.219 460 476.398 457.873 474.837C455.746 473.276 453.311 473.103 451.102 474.355L420.791 491.596L397.326 504.947L364.712 523.489L356.491 528.169C354.592 529.254 352.985 531.325 351.937 534.037C350.889 536.75 350.463 539.942 350.73 543.087C350.811 544.022 350.953 544.942 351.155 545.832L362.82 554.125L364.712 553.047H364.726L423.909 519.387L457.14 500.489C459.349 499.23 461.148 496.647 462.144 493.308C463.139 489.969 463.249 486.146 462.448 482.681H462.448Z" fill="white"/>
<path d="M396.022 337.191C395.218 333.728 393.571 330.907 391.443 329.347C389.315 327.786 386.879 327.613 384.669 328.865L348.029 349.697C345.822 350.955 344.023 353.537 343.029 356.874C342.034 360.211 341.925 364.031 342.725 367.495C343.526 370.959 345.17 373.782 347.296 375.345C349.423 376.908 351.859 377.083 354.067 375.831L365.662 369.239L373.337 364.87L390.714 354.988C392.921 353.729 394.72 351.148 395.715 347.811C396.71 344.475 396.82 340.655 396.022 337.191Z" fill="white"/>
<path d="M542.24 364.87H370.736C369.724 364.872 368.729 365.273 367.843 366.036C366.956 366.8 366.206 367.901 365.662 369.239C365.04 370.754 364.71 372.518 364.712 374.319V555.47L414.101 590.586L421.06 595.533L432.052 603.348C432.696 603.804 433.394 604.04 434.1 604.04C434.807 604.04 435.505 603.804 436.149 603.348L447.14 595.533L481.54 571.077L513.602 548.278L548.264 523.644V374.319C548.263 371.814 547.628 369.411 546.498 367.64C545.369 365.868 543.837 364.872 542.24 364.87Z" fill="#2557AD"/>
<path d="M506.805 491.596H406.171C403.882 491.598 401.683 492.989 400.035 495.478C398.386 497.967 397.415 501.36 397.326 504.947C397.314 505.128 397.31 505.309 397.312 505.491C397.315 509.175 398.25 512.706 399.91 515.311C401.571 517.916 403.822 519.382 406.171 519.387H506.805C509.155 519.387 511.408 517.923 513.069 515.317C514.731 512.711 515.664 509.177 515.664 505.491C515.664 501.806 514.731 498.272 513.069 495.666C511.408 493.06 509.155 491.596 506.805 491.596Z" fill="white"/>
<path d="M512.539 546.599C510.941 544.456 508.907 543.281 506.805 543.287H406.171C403.821 543.287 401.568 544.751 399.907 547.356C398.245 549.962 397.312 553.497 397.312 557.182C397.312 560.867 398.245 564.402 399.907 567.008C401.568 569.613 403.821 571.077 406.171 571.077H481.54L513.602 548.278C513.278 547.672 512.923 547.111 512.539 546.599Z" fill="white"/>
<path d="M421.06 595.533L432.052 603.348C432.696 603.804 433.394 604.04 434.1 604.04C434.807 604.04 435.505 603.804 436.149 603.348L447.14 595.533H421.06Z" fill="white"/>
<path d="M484.297 432.357C483.674 429.682 482.541 427.372 481.053 425.74C479.565 424.108 477.793 423.232 475.977 423.231H436.999C435.297 423.233 433.632 424.004 432.202 425.451C430.772 426.898 429.637 428.959 428.934 431.39C428.409 433.19 428.138 435.147 428.14 437.126C428.143 440.81 429.078 444.341 430.738 446.946C432.399 449.551 434.65 451.016 436.999 451.022H475.977C477.402 451.022 478.806 450.483 480.07 449.45C481.334 448.417 482.42 446.921 483.237 445.089C484.054 443.257 484.577 441.144 484.761 438.927C484.946 436.71 484.787 434.457 484.297 432.357Z" fill="white"/>
<path d="M478.103 571.077L443.703 595.533L435.56 601.325C435.101 601.649 434.604 601.817 434.1 601.817C433.597 601.817 433.099 601.649 432.64 601.325L424.498 595.533H421.06L432.052 603.348C432.696 603.804 433.394 604.04 434.1 604.04C434.807 604.04 435.505 603.804 436.149 603.348L447.14 595.533L481.54 571.077H478.103ZM478.103 571.077L443.703 595.533L435.56 601.325C435.101 601.649 434.604 601.817 434.1 601.817C433.597 601.817 433.099 601.649 432.64 601.325L424.498 595.533H421.06L432.052 603.348C432.696 603.804 433.394 604.04 434.1 604.04C434.807 604.04 435.505 603.804 436.149 603.348L447.14 595.533L481.54 571.077H478.103ZM478.103 571.077L443.703 595.533L435.56 601.325C435.101 601.649 434.604 601.817 434.1 601.817C433.597 601.817 433.099 601.649 432.64 601.325L424.498 595.533H421.06L432.052 603.348C432.696 603.804 433.394 604.04 434.1 604.04C434.807 604.04 435.505 603.804 436.149 603.348L447.14 595.533L481.54 571.077H478.103ZM593.557 494.609C593.295 494.201 593.008 493.835 592.699 493.519C592.003 492.811 591.204 492.39 590.376 492.295C589.549 492.2 588.72 492.433 587.965 492.974L512.539 546.599L478.103 571.077L443.703 595.533L435.56 601.325C435.101 601.649 434.604 601.817 434.1 601.817C433.597 601.817 433.099 601.649 432.64 601.325L424.498 595.533L416.014 589.497L364.726 553.047L364.712 553.036L350.729 543.087L308.981 513.406L280.236 492.974C279.943 492.762 279.637 492.602 279.322 492.496C278.627 492.224 277.903 492.202 277.202 492.43C276.082 492.79 275.074 493.745 274.35 495.134C273.626 496.523 273.229 498.261 273.227 500.056V779.219C273.228 781.282 273.751 783.26 274.681 784.718C275.611 786.177 276.872 786.998 278.188 787H590.013C591.328 786.998 592.589 786.177 593.519 784.718C594.449 783.26 594.973 781.282 594.974 779.219V500.056C594.976 498.018 594.467 496.061 593.557 494.608V494.609ZM593.557 779.219C593.556 780.693 593.183 782.106 592.518 783.148C591.854 784.19 590.953 784.776 590.013 784.777H278.188C277.248 784.776 276.347 784.19 275.682 783.148C275.018 782.106 274.645 780.693 274.644 779.219V500.056C274.644 499.127 274.793 498.213 275.077 497.397C275.36 496.581 275.769 495.89 276.267 495.387C276.617 495.035 277.003 494.779 277.408 494.631C277.527 494.59 277.648 494.561 277.77 494.542C277.908 494.51 278.048 494.496 278.188 494.497C278.691 494.498 279.189 494.669 279.648 494.998L309.654 516.33L351.155 545.832L362.82 554.125L364.712 555.47L414.101 590.586L421.06 595.533L432.052 603.348C432.696 603.804 433.394 604.04 434.1 604.04C434.807 604.04 435.505 603.804 436.149 603.348L447.14 595.533L481.54 571.077L513.602 548.278L588.553 494.998C589.092 494.614 589.684 494.449 590.275 494.517C590.865 494.585 591.436 494.884 591.934 495.387C591.991 495.439 592.045 495.499 592.097 495.565C592.153 495.622 592.206 495.689 592.253 495.765C592.66 496.282 592.989 496.936 593.215 497.678C593.44 498.421 593.557 499.233 593.557 500.056L593.557 779.219ZM478.103 571.077L443.703 595.533L435.56 601.325C435.101 601.649 434.604 601.817 434.1 601.817C433.597 601.817 433.099 601.649 432.64 601.325L424.498 595.533H421.06L432.052 603.348C432.696 603.804 433.394 604.04 434.1 604.04C434.807 604.04 435.505 603.804 436.149 603.348L447.14 595.533L481.54 571.077H478.103ZM478.103 571.077L443.703 595.533L435.56 601.325C435.101 601.649 434.604 601.817 434.1 601.817C433.597 601.817 433.099 601.649 432.64 601.325L424.498 595.533H421.06L432.052 603.348C432.696 603.804 433.394 604.04 434.1 604.04C434.807 604.04 435.505 603.804 436.149 603.348L447.14 595.533L481.54 571.077H478.103ZM362.82 554.125L364.712 555.47V553.047L362.82 554.125ZM478.103 571.077L443.703 595.533L435.56 601.325C435.101 601.649 434.604 601.817 434.1 601.817C433.597 601.817 433.099 601.649 432.64 601.325L424.498 595.533H421.06L432.052 603.348C432.696 603.804 433.394 604.04 434.1 604.04C434.807 604.04 435.505 603.804 436.149 603.348L447.14 595.533L481.54 571.077H478.103Z" fill="#191826"/>
<path d="M231.394 787H151.312C151.124 787 150.944 786.883 150.811 786.674C150.678 786.466 150.603 786.183 150.603 785.888C150.603 785.594 150.678 785.311 150.811 785.102C150.944 784.894 151.124 784.777 151.312 784.777H231.394C231.582 784.777 231.762 784.894 231.895 785.102C232.028 785.311 232.103 785.594 232.103 785.888C232.103 786.183 232.028 786.466 231.895 786.674C231.762 786.883 231.582 787 231.394 787Z" fill="#3F3D56"/>
<path d="M186.649 428.628C185.341 427.587 184.254 425.975 183.519 423.985C182.784 421.995 182.432 419.714 182.506 417.417C182.58 415.12 183.077 412.907 183.937 411.044C184.797 409.181 185.982 407.749 187.35 406.921C192.602 403.741 198.491 410.23 203.997 408.385C209.484 406.547 212.659 396.256 211.349 387.697C210.039 379.138 205.272 372.692 200.015 369.613C196.581 367.607 192.904 366.838 189.256 367.363C185.607 367.887 182.081 369.692 178.937 372.644C175.826 375.681 173.235 379.865 171.389 384.831C169.543 389.797 168.499 395.395 168.346 401.139C168.275 406.887 169.17 412.564 170.942 417.597C172.714 422.63 175.3 426.842 178.44 429.808C179.84 431.074 181.469 432.089 183.042 431.52C184.335 430.861 185.552 429.885 186.649 428.628Z" fill="#2F2E41"/>
<path d="M181.008 371.978C176.376 362.342 170.124 354.426 162.849 350.501C155.573 346.576 147.259 346.891 140.426 352.438C133.593 357.984 128.498 369 127.966 381.039C127.081 401.075 137.996 418.107 139.116 438.115C139.471 444.457 138.815 450.838 137.206 456.683C135.598 462.528 133.088 467.653 129.902 471.598C126.716 475.542 122.955 478.182 118.957 479.279C114.959 480.376 110.85 479.896 107 477.882C109.742 481.423 112.922 484.036 116.339 485.557C119.756 487.078 123.336 487.474 126.856 486.721C130.369 485.893 133.721 483.85 136.669 480.739C139.616 477.628 142.086 473.527 143.898 468.733C146.354 462.038 147.363 454.262 147.755 446.562C148.37 434.387 147.537 422.138 145.297 410.441C144.073 404.059 142.413 397.492 143.189 390.939C143.631 387.531 144.703 384.402 146.269 381.941C147.836 379.479 149.83 377.794 152.002 377.095C155.512 376.064 159.101 377.744 162.453 379.678C165.805 381.612 169.185 383.85 172.755 383.978C176.326 384.106 180.215 381.543 181.595 376.376L181.008 371.978Z" fill="#3E412E"/>
</g>
<path fill-rule="evenodd" clip-rule="evenodd" d="M0 902.2H60C120 902.2 240 902.2 360 881.9C480 861.6 600 821 720 834.533C840 848.067 960 915.733 1080 922.5C1200 929.267 1320 875.133 1380 848.067L1440 821V1024H1380C1320 1024 1200 1024 1080 1024C960 1024 840 1024 720 1024C600 1024 480 1024 360 1024C240 1024 120 1024 60 1024H0V902.2Z" fill="url(#paint2_radial)"/>
<defs>
<radialGradient id="paint0_radial" cx="0" cy="0" r="1" gradientUnits="userSpaceOnUse" gradientTransform="translate(1195 264.5) rotate(173.059) scale(1141.87 1605.75)">
<stop stop-color="#44259A"/>
<stop offset="0.9999" stop-color="#EED8D8" stop-opacity="0.447917"/>
<stop offset="1" stop-color="#971E1E" stop-opacity="0"/>
</radialGradient>
<linearGradient id="paint1_linear" x1="720" y1="0" x2="720" y2="1024" gradientUnits="userSpaceOnUse">
<stop stop-color="white"/>
<stop offset="1" stop-color="white" stop-opacity="0"/>
</linearGradient>
<radialGradient id="paint2_radial" cx="0" cy="0" r="1" gradientUnits="userSpaceOnUse" gradientTransform="translate(720 922.5) rotate(90) scale(101.5 720)">
<stop stop-color="#B15934"/>
<stop offset="1" stop-color="#B13434" stop-opacity="0"/>
</radialGradient>
<clipPath id="clip0">
<rect width="539" height="549" fill="white" transform="translate(107 238)"/>
</clipPath>
</defs>
</svg>
